Coordinates
version=1
nRows=65
nColumns=12
inDegrees=yes

Units are S.I. units (second, meters, Newtons, ...)
Angles are in degrees

endheader
time	SC_y	SC_z	SC_x	AC_y	AC_z	AC_x	GH_y	GH_z	GH_yy	EL_x	PS_y
       0.0              -36.05          21.53          40.68          65.95         -2.283          17.94          94.17           6.41         -92.73          107.0          155.7
   0.01014              -36.05          21.53          40.68          65.95         -2.282          17.94          94.16          6.422         -92.74          107.0          155.6
   0.02028              -36.05          21.53          40.69          65.94          -2.28          17.94          94.15          6.434         -92.75          107.0          155.6
   0.03041              -36.05          21.53           40.7          65.94         -2.279          17.93          94.14          6.447         -92.76          107.0          155.6
   0.04055              -36.06          21.52           40.7          65.94         -2.277          17.93          94.13          6.461         -92.77          107.0          155.6
   0.05069              -36.06          21.52          40.71          65.94         -2.275          17.92          94.12          6.476         -92.78          107.0          155.6
   0.06083              -36.06          21.52          40.72          65.94         -2.273          17.92          94.11          6.492          -92.8          107.0          155.6
   0.07096              -36.06          21.51          40.73          65.94         -2.271          17.91          94.09          6.509         -92.81          106.9          155.5
    0.0811              -36.06          21.51          40.73          65.93         -2.269          17.91          94.08          6.527         -92.83          106.9          155.5
   0.09124              -36.06          21.51          40.74          65.93         -2.266           17.9          94.07          6.546         -92.84          106.9          155.5
    0.1014              -36.06           21.5          40.75          65.93         -2.264           17.9          94.05          6.567         -92.86          106.9          155.5
    0.1115              -36.07           21.5          40.76          65.93         -2.261          17.89          94.03           6.59         -92.88          106.9          155.5
    0.1217              -36.07           21.5          40.78          65.93         -2.258          17.88          94.02          6.614          -92.9          106.8          155.4
    0.1318              -36.07          21.49          40.79          65.92         -2.255          17.87           94.0           6.64         -92.92          106.8          155.4
    0.1419              -36.07          21.49           40.8          65.92         -2.251          17.87          93.97          6.668         -92.95          106.8          155.4
    0.1521              -36.08          21.48          40.82          65.92         -2.247          17.86          93.95          6.699         -92.97          106.8          155.3
    0.1622              -36.08          21.47          40.83          65.91         -2.243          17.85          93.93          6.732          -93.0          106.7          155.3
    0.1723              -36.08          21.47          40.85          65.91         -2.239          17.84           93.9          6.769         -93.03          106.7          155.2
    0.1825              -36.09          21.46          40.87          65.91         -2.234          17.83          93.87          6.808         -93.06          106.6          155.2
    0.1926              -36.09          21.45          40.89           65.9         -2.228          17.81          93.84          6.852          -93.1          106.6          155.2
    0.2028              -36.09          21.44          40.91           65.9         -2.222           17.8           93.8          6.899         -93.14          106.6          155.1
    0.2129               -36.1          21.43          40.93          65.89         -2.216          17.78          93.76          6.952         -93.18          106.5          155.0
     0.223               -36.1          21.42          40.96          65.89         -2.209          17.77          93.72           7.01         -93.23          106.4          155.0
    0.2332              -36.11          21.41          40.99          65.88         -2.201          17.75          93.67          7.074         -93.29          106.4          154.9
    0.2433              -36.12           21.4          41.03          65.87         -2.192          17.73          93.62          7.146         -93.35          106.3          154.8
    0.2534              -36.12          21.39          41.06          65.86         -2.182           17.7          93.56          7.225         -93.41          106.2          154.7
    0.2636              -36.13          21.37          41.11          65.85         -2.171          17.68          93.49          7.315         -93.49          106.1          154.6
    0.2737              -36.14          21.35          41.15          65.84         -2.159          17.65          93.42          7.415         -93.57          106.1          154.5
    0.2839              -36.15          21.33          41.21          65.83         -2.144          17.61          93.33          7.529         -93.67          105.9          154.4
     0.294              -36.16          21.31          41.27          65.82         -2.128          17.57          93.23          7.657         -93.77          105.8          154.2
    0.3041              -36.17          21.28          41.34           65.8          -2.11          17.53          93.12          7.805          -93.9          105.7          154.1
    0.3143              -36.19          21.25          41.42          65.79         -2.089          17.48           93.0          7.973         -94.04          105.5          153.9
    0.3244               -36.2          21.22          41.51          65.77         -2.065          17.42          92.85          8.168          -94.2          105.3          153.6
    0.3345              -36.22          21.18          41.61          65.74         -2.037          17.36          92.68          8.395         -94.39          105.1          153.4
    0.3447              -36.25          21.13          41.74          65.72         -2.004          17.28          92.48           8.66         -94.62          104.8          153.1
    0.3548              -36.28          21.07          41.88          65.69         -1.965          17.19          92.25          8.972         -94.88          104.5          152.7
     0.365              -36.31          21.01          42.06          65.65         -1.919          17.08          91.97          9.343         -95.19          104.2          152.3
    0.3751              -36.35          20.93          42.27           65.6         -1.864          16.94          91.64          9.788         -95.56          103.7          151.8
    0.3852              -36.39          20.83          42.52          65.55         -1.797          16.79          91.24          10.33         -96.01          103.2          151.2
    0.3954              -36.45          20.71          42.83          65.48         -1.716          16.59          90.75          10.98         -96.57          102.5          150.4
    0.4055              -36.52          20.57          43.21           65.4         -1.615          16.35          90.14           11.8         -97.25          101.7          149.5
    0.4156              -36.61          20.38          43.69          65.29          -1.49          16.05          89.38          12.81          -98.1          100.7          148.3
    0.4258              -36.72          20.16          44.29          65.16         -1.332          15.68          88.43          14.08         -99.16           99.5          146.9
    0.4359              -36.87          19.86          45.05           65.0         -1.131           15.2          87.21           15.7         -100.5           97.9          145.0
    0.4461              -37.05          19.49          46.03          64.79        -0.8732          14.58          85.66          17.78         -102.3          95.86          142.6
    0.4562              -37.28          19.01          47.28          64.52        -0.5431           13.8          83.67          20.44         -104.5          93.25          139.6
    0.4663              -37.58           18.4          48.88          64.17        -0.1213          12.79          81.12          23.84         -107.3           89.9          135.7
    0.4765              -37.95          17.64          50.89          63.74          0.409          11.53          77.92          28.11         -110.9           85.7          130.8
    0.4866              -38.41           16.7          53.35           63.2          1.055          9.988          74.02          33.32         -115.3          80.58          124.8
    0.4967              -38.94          15.62          56.19          62.59          1.804          8.204           69.5          39.36         -120.4          74.64          117.8
    0.5069              -39.51          14.44          59.27          61.92          2.615          6.271          64.61           45.9         -125.9          68.21          110.3
     0.517              -40.09          13.27          62.34          61.26          3.427          4.339          59.72          52.44         -131.3          61.78          102.8
    0.5272              -40.61          12.19          65.18          60.64          4.176          2.554           55.2          58.48         -136.4          55.85          95.91
    0.5373              -41.07          11.25          67.64          60.11          4.822          1.014           51.3          63.69         -140.8          50.72          89.93
    0.5474              -41.45          10.48          69.65          59.67          5.352        -0.2496           48.1          67.97         -144.4          46.52          85.03
    0.5576              -41.74          9.874          71.25          59.33          5.774         -1.254          45.55          71.37         -147.2          43.18          81.12
    0.5677              -41.98          9.396           72.5          59.06          6.104         -2.041          43.56          74.03         -149.5          40.56          78.07
    0.5778              -42.16          9.024          73.48          58.85          6.361         -2.654          42.01           76.1         -151.2          38.52          75.69
     0.588               -42.3          8.733          74.24          58.68          6.562         -3.133           40.8          77.72         -152.6          36.93          73.83
    0.5981              -42.41          8.505          74.84          58.55          6.721          -3.51          39.84           79.0         -153.6          35.67          72.37
    0.6083               -42.5          8.323          75.32          58.45          6.846         -3.809          39.08          80.01         -154.5          34.68          71.21
    0.6184              -42.57          8.177           75.7          58.37          6.947         -4.049          38.48          80.82         -155.2          33.88          70.27
    0.6285              -42.63          8.059          76.01           58.3          7.028         -4.243          37.98          81.48         -155.7          33.24          69.52
    0.6387              -42.68          7.963          76.26          58.24          7.095         -4.402          37.58          82.02         -156.2          32.71           68.9
    0.6488              -42.72          7.883          76.47           58.2           7.15         -4.534          37.25          82.46         -156.5          32.27          68.39
